<mxfile host="app.diagrams.net" agent="Mozilla/5.0 (Windows NT 10.0; Win64; x64) AppleWebKit/537.36 (KHTML, like Gecko) Chrome/132.0.0.0 Safari/537.36 Edg/132.0.0.0" version="26.0.11">
  <diagram name="第 1 页" id="557L1trWfhwdPJ5insZk">
    <mxGraphModel dx="2381" dy="861" grid="1" gridSize="10" guides="1" tooltips="1" connect="1" arrows="1" fold="1" page="1" pageScale="1" pageWidth="827" pageHeight="1169" math="0" shadow="0">
      <root>
        <mxCell id="0" />
        <mxCell id="1" parent="0" />
        <mxCell id="dIaU1pZMFaYmL5caylqk-1" value="&lt;span style=&quot;font-family: Arial; color: rgb(25, 25, 25);&quot;&gt;&lt;font style=&quot;font-size: 12px;&quot;&gt;ets_frontend/ets2panda/compiler/core/ETSGen.cpp&lt;/font&gt;&lt;/span&gt;" style="rounded=0;whiteSpace=wrap;html=1;align=left;labelPosition=center;verticalLabelPosition=middle;verticalAlign=top;" vertex="1" parent="1">
          <mxGeometry x="350" y="410" width="400" height="190" as="geometry" />
        </mxCell>
        <mxCell id="dIaU1pZMFaYmL5caylqk-2" value="&lt;p style=&quot;margin: 0px; line-height: 100%;&quot;&gt;&lt;span style=&quot;font-family: Arial; color: rgb(25, 25, 25);&quot;&gt;&lt;font style=&quot;font-size: 12px;&quot;&gt;LoadAccumulatorChar&lt;/font&gt;&lt;/span&gt;&lt;/p&gt;" style="rounded=0;whiteSpace=wrap;html=1;verticalAlign=top;align=left;" vertex="1" parent="1">
          <mxGeometry x="360" y="450" width="130" height="30" as="geometry" />
        </mxCell>
        <mxCell id="dIaU1pZMFaYmL5caylqk-5" value="&lt;p style=&quot;margin: 0px; line-height: 100%;&quot;&gt;&lt;span style=&quot;font-family: Arial; color: rgb(25, 25, 25);&quot;&gt;&lt;font style=&quot;font-size: 12px;&quot;&gt;梳理此次修改的逻辑&lt;/font&gt;&lt;/span&gt;&lt;/p&gt;" style="rounded=0;whiteSpace=wrap;html=1;verticalAlign=top;align=left;" vertex="1" parent="1">
          <mxGeometry x="350" y="340" width="130" height="30" as="geometry" />
        </mxCell>
        <mxCell id="dIaU1pZMFaYmL5caylqk-10" style="edgeStyle=orthogonalEdgeStyle;rounded=0;orthogonalLoop=1;jettySize=auto;html=1;exitX=0.5;exitY=0;exitDx=0;exitDy=0;entryX=0.5;entryY=1;entryDx=0;entryDy=0;" edge="1" parent="1" source="dIaU1pZMFaYmL5caylqk-6" target="dIaU1pZMFaYmL5caylqk-2">
          <mxGeometry relative="1" as="geometry" />
        </mxCell>
        <mxCell id="dIaU1pZMFaYmL5caylqk-6" value="&lt;p style=&quot;margin: 0px; line-height: 100%;&quot;&gt;TryLoadConstantExpression&lt;/p&gt;" style="rounded=0;whiteSpace=wrap;html=1;verticalAlign=top;align=left;" vertex="1" parent="1">
          <mxGeometry x="360" y="500" width="160" height="30" as="geometry" />
        </mxCell>
        <mxCell id="dIaU1pZMFaYmL5caylqk-11" value="&lt;p style=&quot;margin: 0px; line-height: 100%;&quot;&gt;ets_frontend/ets2panda/compiler/core/ETSCompiler.cpp&lt;/p&gt;" style="rounded=0;whiteSpace=wrap;html=1;verticalAlign=top;align=left;" vertex="1" parent="1">
          <mxGeometry x="-30" y="410" width="360" height="190" as="geometry" />
        </mxCell>
        <mxCell id="dIaU1pZMFaYmL5caylqk-13" style="edgeStyle=orthogonalEdgeStyle;rounded=0;orthogonalLoop=1;jettySize=auto;html=1;exitX=1;exitY=0.5;exitDx=0;exitDy=0;entryX=0;entryY=0.5;entryDx=0;entryDy=0;" edge="1" parent="1" source="dIaU1pZMFaYmL5caylqk-12" target="dIaU1pZMFaYmL5caylqk-2">
          <mxGeometry relative="1" as="geometry" />
        </mxCell>
        <mxCell id="dIaU1pZMFaYmL5caylqk-12" value="void ETSCompiler::Compile(const ir::CharLiteral *expr)&lt;div&gt;&lt;span style=&quot;font-family: Arial; font-size: 8pt; color: rgb(25, 25, 25);&quot;&gt;这里有一个ASSERT&lt;/span&gt;&lt;/div&gt;" style="rounded=0;whiteSpace=wrap;html=1;verticalAlign=top;align=left;" vertex="1" parent="1">
          <mxGeometry x="-20" y="445" width="320" height="40" as="geometry" />
        </mxCell>
        <mxCell id="dIaU1pZMFaYmL5caylqk-17" style="edgeStyle=orthogonalEdgeStyle;rounded=0;orthogonalLoop=1;jettySize=auto;html=1;exitX=0.5;exitY=0;exitDx=0;exitDy=0;entryX=0.5;entryY=1;entryDx=0;entryDy=0;" edge="1" parent="1" source="dIaU1pZMFaYmL5caylqk-15" target="dIaU1pZMFaYmL5caylqk-12">
          <mxGeometry relative="1" as="geometry" />
        </mxCell>
        <mxCell id="dIaU1pZMFaYmL5caylqk-15" value="&lt;p style=&quot;margin: 0px; line-height: 100%;&quot;&gt;&lt;span style=&quot;font-family: Arial; color: rgb(25, 25, 25);&quot;&gt;&lt;font style=&quot;font-size: 12px;&quot;&gt;ETSCompiler::Compile(const ir::AssignmentExpression *expr)&lt;/font&gt;&lt;/span&gt;&lt;/p&gt;" style="rounded=0;whiteSpace=wrap;html=1;verticalAlign=top;align=left;" vertex="1" parent="1">
          <mxGeometry x="-20" y="510" width="340" height="30" as="geometry" />
        </mxCell>
        <mxCell id="dIaU1pZMFaYmL5caylqk-18" value="&lt;p style=&quot;margin: 0px; line-height: 100%;&quot;&gt;&lt;span style=&quot;font-family:&#39;Arial&#39;; font-size:8pt; color:#191919;&quot;&gt;ets_frontend/ets2panda/checker/ETSAnalyzer.cpp&lt;/span&gt;&lt;/p&gt;" style="rounded=0;whiteSpace=wrap;html=1;verticalAlign=top;align=left;" vertex="1" parent="1">
          <mxGeometry x="770" y="410" width="290" height="60" as="geometry" />
        </mxCell>
      </root>
    </mxGraphModel>
  </diagram>
</mxfile>
